<mxfile host="app.diagrams.net" modified="2024-03-25T13:43:10.985Z" agent="Mozilla/5.0 (Macintosh; Intel Mac OS X 10_15_7) AppleWebKit/605.1.15 (KHTML, like Gecko) Version/16.6 Safari/605.1.15" etag="cB52t0wk31FHxKcz_1QD" version="24.0.8" type="github">
  <diagram name="Page-1" id="gaC_4WcgWsaMgI3k3bik">
    <mxGraphModel dx="986" dy="731" grid="0" gridSize="10" guides="1" tooltips="1" connect="1" arrows="1" fold="1" page="1" pageScale="1" pageWidth="1654" pageHeight="2336" background="none" math="0" shadow="0">
      <root>
        <mxCell id="0" />
        <mxCell id="1" parent="0" />
        <mxCell id="LW8IWeT9kJPDAMSJkElj-71" value="" style="group;labelBackgroundColor=none;" parent="1" vertex="1" connectable="0">
          <mxGeometry x="329" y="61" width="140" height="130" as="geometry" />
        </mxCell>
        <mxCell id="LW8IWeT9kJPDAMSJkElj-115" value="" style="group;labelBackgroundColor=none;" parent="LW8IWeT9kJPDAMSJkElj-71" vertex="1" connectable="0">
          <mxGeometry width="140" height="130" as="geometry" />
        </mxCell>
        <mxCell id="LW8IWeT9kJPDAMSJkElj-27" value="&lt;div&gt;&lt;b&gt;&lt;br&gt;&lt;/b&gt;&lt;/div&gt;&lt;b&gt;Templates&lt;/b&gt;&lt;div&gt;&lt;b&gt;&lt;br&gt;&lt;/b&gt;&lt;/div&gt;&lt;div&gt;&lt;b&gt;&lt;br&gt;&lt;/b&gt;&lt;/div&gt;&lt;div&gt;&lt;b&gt;&lt;br&gt;&lt;/b&gt;&lt;/div&gt;&lt;div&gt;&lt;b&gt;&lt;br&gt;&lt;/b&gt;&lt;/div&gt;&lt;div&gt;&lt;b&gt;&lt;br&gt;&lt;/b&gt;&lt;/div&gt;&lt;div&gt;&lt;b&gt;&lt;br&gt;&lt;/b&gt;&lt;/div&gt;&lt;div&gt;&lt;b&gt;&lt;br&gt;&lt;/b&gt;&lt;/div&gt;&lt;div&gt;&lt;br&gt;&lt;/div&gt;" style="rounded=0;whiteSpace=wrap;html=1;labelBackgroundColor=none;" parent="LW8IWeT9kJPDAMSJkElj-115" vertex="1">
          <mxGeometry width="140" height="130" as="geometry" />
        </mxCell>
        <mxCell id="LW8IWeT9kJPDAMSJkElj-24" value="Pre-defined headers" style="rounded=0;whiteSpace=wrap;html=1;align=left;labelBackgroundColor=none;" parent="LW8IWeT9kJPDAMSJkElj-115" vertex="1">
          <mxGeometry x="10" y="30" width="120" height="40" as="geometry" />
        </mxCell>
        <mxCell id="LW8IWeT9kJPDAMSJkElj-26" value="&lt;div style=&quot;text-align: left;&quot;&gt;Jinja2 snippets&lt;br&gt;&lt;/div&gt;" style="rounded=0;whiteSpace=wrap;html=1;labelBackgroundColor=none;" parent="LW8IWeT9kJPDAMSJkElj-115" vertex="1">
          <mxGeometry x="10" y="85.55000000000001" width="120" height="29.5" as="geometry" />
        </mxCell>
        <mxCell id="LW8IWeT9kJPDAMSJkElj-29" value="" style="group;labelBackgroundColor=none;strokeWidth=3;" parent="1" vertex="1" connectable="0">
          <mxGeometry x="69" y="247" width="170" height="240" as="geometry" />
        </mxCell>
        <mxCell id="LW8IWeT9kJPDAMSJkElj-15" value="&lt;div style=&quot;text-align: center;&quot;&gt;&lt;b&gt;&amp;nbsp; &amp;nbsp; &amp;nbsp; &amp;nbsp; &amp;nbsp; &amp;nbsp; &amp;nbsp; &amp;nbsp;YAML Spec&lt;/b&gt;&lt;/div&gt;&lt;div style=&quot;text-align: center;&quot;&gt;&lt;b&gt;&lt;br&gt;&lt;/b&gt;&lt;/div&gt;&lt;div style=&quot;text-align: center;&quot;&gt;&lt;b&gt;&lt;br&gt;&lt;/b&gt;&lt;/div&gt;&lt;div style=&quot;text-align: center;&quot;&gt;&lt;b&gt;&lt;br&gt;&lt;/b&gt;&lt;/div&gt;&lt;div style=&quot;text-align: center;&quot;&gt;&lt;b&gt;&lt;br&gt;&lt;/b&gt;&lt;/div&gt;&lt;div style=&quot;text-align: center;&quot;&gt;&lt;b&gt;&lt;br&gt;&lt;/b&gt;&lt;/div&gt;&lt;div style=&quot;text-align: center;&quot;&gt;&lt;b&gt;&lt;br&gt;&lt;/b&gt;&lt;/div&gt;&lt;div style=&quot;text-align: center;&quot;&gt;&lt;b&gt;&lt;br&gt;&lt;/b&gt;&lt;/div&gt;&lt;div style=&quot;text-align: center;&quot;&gt;&lt;b&gt;&lt;br&gt;&lt;/b&gt;&lt;/div&gt;&lt;div style=&quot;text-align: center;&quot;&gt;&lt;b&gt;&lt;br&gt;&lt;/b&gt;&lt;/div&gt;&lt;div style=&quot;text-align: center;&quot;&gt;&lt;b&gt;&lt;br&gt;&lt;/b&gt;&lt;/div&gt;&lt;div style=&quot;text-align: center;&quot;&gt;&lt;b&gt;&lt;br&gt;&lt;/b&gt;&lt;/div&gt;&lt;div style=&quot;text-align: center;&quot;&gt;&lt;b&gt;&lt;br&gt;&lt;/b&gt;&lt;/div&gt;&lt;div style=&quot;text-align: center;&quot;&gt;&lt;b&gt;&lt;br&gt;&lt;/b&gt;&lt;/div&gt;&lt;div style=&quot;text-align: center;&quot;&gt;&lt;b&gt;&lt;br&gt;&lt;/b&gt;&lt;/div&gt;&lt;div&gt;&lt;br&gt;&lt;/div&gt;" style="rounded=0;whiteSpace=wrap;html=1;align=left;labelBackgroundColor=none;strokeWidth=2;" parent="LW8IWeT9kJPDAMSJkElj-29" vertex="1">
          <mxGeometry width="170" height="240" as="geometry" />
        </mxCell>
        <mxCell id="LW8IWeT9kJPDAMSJkElj-14" value="" style="group;labelBackgroundColor=none;" parent="LW8IWeT9kJPDAMSJkElj-29" vertex="1" connectable="0">
          <mxGeometry x="10" y="30" width="150" height="200" as="geometry" />
        </mxCell>
        <mxCell id="LW8IWeT9kJPDAMSJkElj-7" value="&lt;div style=&quot;&quot;&gt;safety_scope.yaml&lt;/div&gt;&lt;div style=&quot;&quot;&gt;safety_scope_impl.yaml&lt;/div&gt;" style="rounded=0;whiteSpace=wrap;html=1;align=left;labelBackgroundColor=none;" parent="LW8IWeT9kJPDAMSJkElj-14" vertex="1">
          <mxGeometry width="150" height="40" as="geometry" />
        </mxCell>
        <mxCell id="LW8IWeT9kJPDAMSJkElj-8" value="scope_schema.yaml" style="rounded=0;whiteSpace=wrap;html=1;align=left;labelBackgroundColor=none;" parent="LW8IWeT9kJPDAMSJkElj-14" vertex="1">
          <mxGeometry y="180" width="150" height="20" as="geometry" />
        </mxCell>
        <mxCell id="LW8IWeT9kJPDAMSJkElj-9" value="&lt;div style=&quot;text-align: left;&quot;&gt;standard_scope.yaml&lt;/div&gt;&lt;div style=&quot;text-align: left;&quot;&gt;standard_scope_impl.yaml&lt;/div&gt;" style="rounded=0;whiteSpace=wrap;html=1;labelBackgroundColor=none;" parent="LW8IWeT9kJPDAMSJkElj-14" vertex="1">
          <mxGeometry y="60" width="150" height="40" as="geometry" />
        </mxCell>
        <mxCell id="LW8IWeT9kJPDAMSJkElj-12" value="&lt;div style=&quot;&quot;&gt;dla_scope.yaml&lt;/div&gt;&lt;div style=&quot;&quot;&gt;dla_scope_impl.yaml&lt;/div&gt;" style="rounded=0;whiteSpace=wrap;html=1;align=left;labelBackgroundColor=none;" parent="LW8IWeT9kJPDAMSJkElj-14" vertex="1">
          <mxGeometry y="120" width="150" height="40" as="geometry" />
        </mxCell>
        <mxCell id="LW8IWeT9kJPDAMSJkElj-31" value="" style="group;container=0;labelBackgroundColor=none;strokeWidth=3;" parent="1" vertex="1" connectable="0">
          <mxGeometry x="329" y="61" width="140" height="130" as="geometry" />
        </mxCell>
        <mxCell id="LW8IWeT9kJPDAMSJkElj-49" style="edgeStyle=orthogonalEdgeStyle;rounded=0;orthogonalLoop=1;jettySize=auto;html=1;entryX=0.5;entryY=1;entryDx=0;entryDy=0;labelBackgroundColor=none;fontColor=default;fillColor=#ffe6cc;strokeColor=#d79b00;strokeWidth=2;dashed=1;dashPattern=1 1;" parent="1" source="LW8IWeT9kJPDAMSJkElj-21" target="LW8IWeT9kJPDAMSJkElj-27" edge="1">
          <mxGeometry relative="1" as="geometry" />
        </mxCell>
        <mxCell id="LW8IWeT9kJPDAMSJkElj-50" value="Depends on" style="edgeLabel;html=1;align=center;verticalAlign=middle;resizable=0;points=[];labelBackgroundColor=none;fontSize=13;fontColor=#D79B00;" parent="LW8IWeT9kJPDAMSJkElj-49" vertex="1" connectable="0">
          <mxGeometry x="0.0043" y="-1" relative="1" as="geometry">
            <mxPoint x="36" as="offset" />
          </mxGeometry>
        </mxCell>
        <mxCell id="LW8IWeT9kJPDAMSJkElj-53" style="edgeStyle=orthogonalEdgeStyle;rounded=0;orthogonalLoop=1;jettySize=auto;html=1;exitX=0;exitY=0.5;exitDx=0;exitDy=0;entryX=1;entryY=0.5;entryDx=0;entryDy=0;labelBackgroundColor=none;fontColor=default;fillColor=#ffe6cc;strokeColor=#d79b00;strokeWidth=2;dashed=1;dashPattern=1 1;" parent="1" source="LW8IWeT9kJPDAMSJkElj-21" target="LW8IWeT9kJPDAMSJkElj-15" edge="1">
          <mxGeometry relative="1" as="geometry" />
        </mxCell>
        <mxCell id="LW8IWeT9kJPDAMSJkElj-54" value="Depends on" style="edgeLabel;html=1;align=center;verticalAlign=middle;resizable=0;points=[];labelBackgroundColor=none;fontSize=13;fontColor=#D79B00;" parent="LW8IWeT9kJPDAMSJkElj-53" vertex="1" connectable="0">
          <mxGeometry x="0.1405" y="-3" relative="1" as="geometry">
            <mxPoint x="6" y="-10" as="offset" />
          </mxGeometry>
        </mxCell>
        <mxCell id="LW8IWeT9kJPDAMSJkElj-70" value="" style="group;labelBackgroundColor=none;fillColor=#ffe6cc;strokeColor=#d79b00;container=0;" parent="1" vertex="1" connectable="0">
          <mxGeometry x="548" y="170" width="190" height="330" as="geometry" />
        </mxCell>
        <mxCell id="LW8IWeT9kJPDAMSJkElj-21" value="&lt;div style=&quot;text-align: left;&quot;&gt;&lt;b&gt;&lt;br&gt;&lt;/b&gt;&lt;/div&gt;&lt;div style=&quot;text-align: left;&quot;&gt;&lt;b&gt;Code Generator&lt;/b&gt;&lt;/div&gt;&lt;div style=&quot;text-align: left;&quot;&gt;&lt;b&gt;&lt;br&gt;&lt;/b&gt;&lt;/div&gt;&lt;div style=&quot;text-align: left;&quot;&gt;&lt;b&gt;&lt;br&gt;&lt;/b&gt;&lt;/div&gt;&lt;div style=&quot;text-align: left;&quot;&gt;&lt;b&gt;&lt;br&gt;&lt;/b&gt;&lt;/div&gt;&lt;div style=&quot;text-align: left;&quot;&gt;&lt;b&gt;&lt;br&gt;&lt;/b&gt;&lt;/div&gt;&lt;div style=&quot;text-align: left;&quot;&gt;&lt;b&gt;&lt;br&gt;&lt;/b&gt;&lt;/div&gt;&lt;div style=&quot;text-align: left;&quot;&gt;&lt;b&gt;&lt;br&gt;&lt;/b&gt;&lt;/div&gt;&lt;div style=&quot;text-align: left;&quot;&gt;&lt;b&gt;&lt;br&gt;&lt;/b&gt;&lt;/div&gt;&lt;div style=&quot;text-align: left;&quot;&gt;&lt;b&gt;&lt;br&gt;&lt;/b&gt;&lt;/div&gt;&lt;div style=&quot;text-align: left;&quot;&gt;&lt;b&gt;&lt;br&gt;&lt;/b&gt;&lt;/div&gt;&lt;div style=&quot;text-align: left;&quot;&gt;&lt;b&gt;&lt;br&gt;&lt;/b&gt;&lt;/div&gt;&lt;div style=&quot;text-align: left;&quot;&gt;&lt;b&gt;&lt;br&gt;&lt;/b&gt;&lt;/div&gt;&lt;div style=&quot;text-align: left;&quot;&gt;&lt;b&gt;&lt;br&gt;&lt;/b&gt;&lt;/div&gt;&lt;div style=&quot;text-align: left;&quot;&gt;&lt;b&gt;&lt;br&gt;&lt;/b&gt;&lt;/div&gt;&lt;div style=&quot;text-align: left;&quot;&gt;&lt;b&gt;&lt;br&gt;&lt;/b&gt;&lt;/div&gt;&lt;div style=&quot;text-align: left;&quot;&gt;&lt;b&gt;&lt;br&gt;&lt;/b&gt;&lt;/div&gt;&lt;div&gt;&lt;br&gt;&lt;/div&gt;" style="rounded=0;whiteSpace=wrap;html=1;labelBackgroundColor=none;fillColor=#d5e8d4;strokeColor=#82b366;strokeWidth=4;" parent="1" vertex="1">
          <mxGeometry x="319" y="246" width="160" height="241" as="geometry" />
        </mxCell>
        <mxCell id="LW8IWeT9kJPDAMSJkElj-16" value="generate_validator.py" style="rounded=0;whiteSpace=wrap;html=1;labelBackgroundColor=none;" parent="1" vertex="1">
          <mxGeometry x="339" y="345.73" width="120" height="54.54545454545454" as="geometry" />
        </mxCell>
        <mxCell id="LW8IWeT9kJPDAMSJkElj-84" style="edgeStyle=orthogonalEdgeStyle;rounded=0;orthogonalLoop=1;jettySize=auto;html=1;entryX=0.5;entryY=0;entryDx=0;entryDy=0;labelBackgroundColor=none;fontColor=default;strokeWidth=2;strokeColor=#006EAF;" parent="1" source="LW8IWeT9kJPDAMSJkElj-18" target="LW8IWeT9kJPDAMSJkElj-80" edge="1">
          <mxGeometry relative="1" as="geometry">
            <Array as="points">
              <mxPoint x="399" y="516" />
              <mxPoint x="399" y="516" />
            </Array>
          </mxGeometry>
        </mxCell>
        <mxCell id="LW8IWeT9kJPDAMSJkElj-86" value="Writes" style="edgeLabel;html=1;align=center;verticalAlign=middle;resizable=0;points=[];labelBackgroundColor=none;fontSize=13;fontColor=#006EAF;" parent="LW8IWeT9kJPDAMSJkElj-84" vertex="1" connectable="0">
          <mxGeometry x="0.1323" y="-1" relative="1" as="geometry">
            <mxPoint x="22" y="-1" as="offset" />
          </mxGeometry>
        </mxCell>
        <mxCell id="LW8IWeT9kJPDAMSJkElj-18" value="generate_query.py" style="rounded=0;whiteSpace=wrap;html=1;labelBackgroundColor=none;" parent="1" vertex="1">
          <mxGeometry x="339" y="417.99727272727273" width="120" height="54.54545454545454" as="geometry" />
        </mxCell>
        <mxCell id="LW8IWeT9kJPDAMSJkElj-19" value="validate_yaml.py" style="rounded=0;whiteSpace=wrap;html=1;labelBackgroundColor=none;" parent="1" vertex="1">
          <mxGeometry x="339" y="277.00454545454545" width="120" height="54.54545454545454" as="geometry" />
        </mxCell>
        <mxCell id="LW8IWeT9kJPDAMSJkElj-73" style="edgeStyle=orthogonalEdgeStyle;rounded=0;orthogonalLoop=1;jettySize=auto;html=1;entryX=0.002;entryY=0.55;entryDx=0;entryDy=0;entryPerimeter=0;labelBackgroundColor=none;fontColor=default;fillColor=#1ba1e2;strokeColor=#006EAF;strokeWidth=2;" parent="1" source="LW8IWeT9kJPDAMSJkElj-16" target="LW8IWeT9kJPDAMSJkElj-69" edge="1">
          <mxGeometry relative="1" as="geometry" />
        </mxCell>
        <mxCell id="LW8IWeT9kJPDAMSJkElj-74" value="Writes" style="edgeLabel;html=1;align=center;verticalAlign=middle;resizable=0;points=[];labelBackgroundColor=none;fontSize=13;fontColor=#006EAF;" parent="LW8IWeT9kJPDAMSJkElj-73" vertex="1" connectable="0">
          <mxGeometry x="0.2774" y="-2" relative="1" as="geometry">
            <mxPoint x="-7" y="-15" as="offset" />
          </mxGeometry>
        </mxCell>
        <mxCell id="LW8IWeT9kJPDAMSJkElj-112" value="" style="group;labelBackgroundColor=none;" parent="1" vertex="1" connectable="0">
          <mxGeometry x="564" y="567" width="339" height="209" as="geometry" />
        </mxCell>
        <mxCell id="LW8IWeT9kJPDAMSJkElj-95" value="" style="endArrow=none;dashed=1;html=1;rounded=0;entryX=0;entryY=0;entryDx=0;entryDy=25;entryPerimeter=0;exitX=1;exitY=0.5;exitDx=0;exitDy=0;labelBackgroundColor=none;fontColor=default;" parent="LW8IWeT9kJPDAMSJkElj-112" source="LW8IWeT9kJPDAMSJkElj-33" target="LW8IWeT9kJPDAMSJkElj-110" edge="1">
          <mxGeometry width="50" height="50" relative="1" as="geometry">
            <mxPoint x="195" y="239" as="sourcePoint" />
            <mxPoint x="205" y="103" as="targetPoint" />
          </mxGeometry>
        </mxCell>
        <mxCell id="LW8IWeT9kJPDAMSJkElj-96" value="" style="endArrow=none;dashed=1;html=1;rounded=0;entryX=0;entryY=0;entryDx=0;entryDy=25;entryPerimeter=0;labelBackgroundColor=none;fontColor=default;" parent="LW8IWeT9kJPDAMSJkElj-112" target="LW8IWeT9kJPDAMSJkElj-109" edge="1">
          <mxGeometry width="50" height="50" relative="1" as="geometry">
            <mxPoint x="145" y="59" as="sourcePoint" />
            <mxPoint x="205" y="40" as="targetPoint" />
          </mxGeometry>
        </mxCell>
        <mxCell id="LW8IWeT9kJPDAMSJkElj-109" value="getBuilderLimits&lt;div&gt;ILimitRange&lt;/div&gt;&lt;div&gt;IDeviceCapabilityLimits&lt;/div&gt;" style="shape=callout;whiteSpace=wrap;html=1;perimeter=calloutPerimeter;labelBackgroundColor=none;fillColor=#dae8fc;strokeColor=#6c8ebf;" parent="LW8IWeT9kJPDAMSJkElj-112" vertex="1">
          <mxGeometry x="209" y="34" width="130" height="80" as="geometry" />
        </mxCell>
        <mxCell id="LW8IWeT9kJPDAMSJkElj-110" value="&lt;div&gt;getValidators&lt;br&gt;&lt;/div&gt;&lt;div&gt;IValidators&lt;/div&gt;" style="shape=callout;whiteSpace=wrap;html=1;perimeter=calloutPerimeter;labelBackgroundColor=none;fillColor=#dae8fc;strokeColor=#6c8ebf;" parent="LW8IWeT9kJPDAMSJkElj-112" vertex="1">
          <mxGeometry x="209" y="126.39999999999998" width="130" height="80" as="geometry" />
        </mxCell>
        <mxCell id="LW8IWeT9kJPDAMSJkElj-35" value="" style="group;labelBackgroundColor=none;" parent="LW8IWeT9kJPDAMSJkElj-112" vertex="1" connectable="0">
          <mxGeometry width="160" height="209" as="geometry" />
        </mxCell>
        <mxCell id="LW8IWeT9kJPDAMSJkElj-34" value="&lt;div&gt;&lt;b&gt;&lt;br&gt;&lt;/b&gt;&lt;/div&gt;&lt;div&gt;&lt;div&gt;&lt;b&gt;&lt;br&gt;&lt;/b&gt;&lt;/div&gt;&lt;b&gt;C++ API (Public Ready)&lt;/b&gt;&lt;div&gt;&lt;b&gt;&lt;br&gt;&lt;/b&gt;&lt;/div&gt;&lt;div&gt;&lt;b&gt;&lt;br&gt;&lt;/b&gt;&lt;/div&gt;&lt;div&gt;&lt;b&gt;&lt;br&gt;&lt;/b&gt;&lt;/div&gt;&lt;div&gt;&lt;b&gt;&lt;br&gt;&lt;/b&gt;&lt;/div&gt;&lt;div&gt;&lt;b&gt;&lt;br&gt;&lt;/b&gt;&lt;/div&gt;&lt;div&gt;&lt;b&gt;&lt;br&gt;&lt;/b&gt;&lt;/div&gt;&lt;div&gt;&lt;b&gt;&lt;br&gt;&lt;/b&gt;&lt;/div&gt;&lt;div&gt;&lt;b&gt;&lt;br&gt;&lt;/b&gt;&lt;/div&gt;&lt;div&gt;&lt;b&gt;&lt;br&gt;&lt;/b&gt;&lt;/div&gt;&lt;/div&gt;&lt;div&gt;&lt;b&gt;&lt;br&gt;&lt;/b&gt;&lt;/div&gt;&lt;div&gt;&lt;b&gt;&lt;br&gt;&lt;/b&gt;&lt;/div&gt;&lt;div&gt;&lt;b&gt;&lt;br&gt;&lt;/b&gt;&lt;/div&gt;&lt;div&gt;&lt;b&gt;&lt;br&gt;&lt;/b&gt;&lt;/div&gt;&lt;div&gt;&lt;b&gt;&lt;br&gt;&lt;/b&gt;&lt;/div&gt;&lt;div&gt;&lt;br&gt;&lt;/div&gt;" style="rounded=0;whiteSpace=wrap;html=1;labelBackgroundColor=none;strokeWidth=3;" parent="LW8IWeT9kJPDAMSJkElj-35" vertex="1">
          <mxGeometry width="160" height="209" as="geometry" />
        </mxCell>
        <mxCell id="LW8IWeT9kJPDAMSJkElj-32" value="Query API" style="rounded=0;whiteSpace=wrap;html=1;labelBackgroundColor=none;" parent="LW8IWeT9kJPDAMSJkElj-35" vertex="1">
          <mxGeometry x="17.5" y="36.77142857142857" width="122.5" height="55.72835714285714" as="geometry" />
        </mxCell>
        <mxCell id="LW8IWeT9kJPDAMSJkElj-33" value="Validator API" style="rounded=0;whiteSpace=wrap;html=1;labelBackgroundColor=none;" parent="LW8IWeT9kJPDAMSJkElj-35" vertex="1">
          <mxGeometry x="17.5" y="123.39999999999999" width="122.5" height="55.72835714285714" as="geometry" />
        </mxCell>
        <mxCell id="LW8IWeT9kJPDAMSJkElj-114" value="" style="group;labelBackgroundColor=none;" parent="1" vertex="1" connectable="0">
          <mxGeometry x="139" y="548" width="345" height="238" as="geometry" />
        </mxCell>
        <mxCell id="LW8IWeT9kJPDAMSJkElj-102" value="" style="group;labelBackgroundColor=none;strokeWidth=3;" parent="LW8IWeT9kJPDAMSJkElj-114" vertex="1" connectable="0">
          <mxGeometry x="175" width="170" height="228" as="geometry" />
        </mxCell>
        <mxCell id="LW8IWeT9kJPDAMSJkElj-80" value="&lt;b&gt;Query Impl&lt;/b&gt;&lt;div&gt;&lt;b&gt;&lt;br&gt;&lt;/b&gt;&lt;/div&gt;&lt;div&gt;&lt;b&gt;&lt;br&gt;&lt;/b&gt;&lt;/div&gt;&lt;div&gt;&lt;b&gt;&lt;br&gt;&lt;/b&gt;&lt;/div&gt;&lt;div&gt;&lt;b&gt;&lt;br&gt;&lt;/b&gt;&lt;/div&gt;&lt;div&gt;&lt;b&gt;&lt;br&gt;&lt;/b&gt;&lt;/div&gt;&lt;div&gt;&lt;b&gt;&lt;br&gt;&lt;/b&gt;&lt;/div&gt;&lt;div&gt;&lt;b&gt;&lt;br&gt;&lt;/b&gt;&lt;/div&gt;&lt;div&gt;&lt;b&gt;&lt;br&gt;&lt;/b&gt;&lt;/div&gt;&lt;div&gt;&lt;b&gt;&lt;br&gt;&lt;/b&gt;&lt;/div&gt;&lt;div&gt;&lt;b&gt;&lt;br&gt;&lt;/b&gt;&lt;/div&gt;&lt;div&gt;&lt;b&gt;&lt;br&gt;&lt;/b&gt;&lt;/div&gt;&lt;div&gt;&lt;br&gt;&lt;/div&gt;&lt;div&gt;&lt;br&gt;&lt;/div&gt;" style="rounded=0;whiteSpace=wrap;html=1;align=center;labelBackgroundColor=none;strokeWidth=2;" parent="LW8IWeT9kJPDAMSJkElj-102" vertex="1">
          <mxGeometry width="170" height="228.00000000000003" as="geometry" />
        </mxCell>
        <mxCell id="LW8IWeT9kJPDAMSJkElj-76" value="VLimitRange Classes" style="rounded=0;whiteSpace=wrap;html=1;align=center;labelBackgroundColor=none;" parent="LW8IWeT9kJPDAMSJkElj-102" vertex="1">
          <mxGeometry x="20.5" y="43.32" width="128" height="38.75999999999999" as="geometry" />
        </mxCell>
        <mxCell id="LW8IWeT9kJPDAMSJkElj-77" value="VDeviceCapabilityLimits Classes" style="rounded=0;whiteSpace=wrap;html=1;align=center;labelBackgroundColor=none;" parent="LW8IWeT9kJPDAMSJkElj-102" vertex="1">
          <mxGeometry x="20.5" y="159.60000000000002" width="129.5" height="45.6" as="geometry" />
        </mxCell>
        <mxCell id="LW8IWeT9kJPDAMSJkElj-78" value="getBuilderLimits" style="rounded=0;whiteSpace=wrap;html=1;align=center;labelBackgroundColor=none;" parent="LW8IWeT9kJPDAMSJkElj-102" vertex="1">
          <mxGeometry x="20" y="106.01999999999998" width="129" height="34.2" as="geometry" />
        </mxCell>
        <mxCell id="LW8IWeT9kJPDAMSJkElj-104" value="Int64Limit&lt;div&gt;FloatLimit&lt;br&gt;&lt;div&gt;FlagLimit&lt;/div&gt;&lt;/div&gt;&lt;div&gt;BitsetLimit&lt;/div&gt;" style="shape=callout;whiteSpace=wrap;html=1;perimeter=calloutPerimeter;labelBackgroundColor=none;fillColor=#dae8fc;strokeColor=#6c8ebf;" parent="LW8IWeT9kJPDAMSJkElj-114" vertex="1">
          <mxGeometry y="38" width="120" height="91" as="geometry" />
        </mxCell>
        <mxCell id="LW8IWeT9kJPDAMSJkElj-107" value="StandardGpuLimits&lt;div&gt;SafeGpuLimits&lt;/div&gt;&lt;div&gt;DlaLimits&lt;/div&gt;" style="shape=callout;whiteSpace=wrap;html=1;perimeter=calloutPerimeter;labelBackgroundColor=none;fillColor=#dae8fc;strokeColor=#6c8ebf;" parent="LW8IWeT9kJPDAMSJkElj-114" vertex="1">
          <mxGeometry y="158" width="120" height="80" as="geometry" />
        </mxCell>
        <mxCell id="LW8IWeT9kJPDAMSJkElj-106" value="" style="endArrow=none;dashed=1;html=1;rounded=0;exitX=0;exitY=0.5;exitDx=0;exitDy=0;entryX=0;entryY=0;entryDx=120;entryDy=25;entryPerimeter=0;labelBackgroundColor=none;fontColor=default;" parent="LW8IWeT9kJPDAMSJkElj-114" source="LW8IWeT9kJPDAMSJkElj-76" target="LW8IWeT9kJPDAMSJkElj-104" edge="1">
          <mxGeometry width="50" height="50" relative="1" as="geometry">
            <mxPoint x="230" y="38" as="sourcePoint" />
            <mxPoint x="280" y="-12" as="targetPoint" />
          </mxGeometry>
        </mxCell>
        <mxCell id="LW8IWeT9kJPDAMSJkElj-108" value="" style="endArrow=none;dashed=1;html=1;rounded=0;exitX=0;exitY=0;exitDx=120;exitDy=25;exitPerimeter=0;entryX=0;entryY=0.5;entryDx=0;entryDy=0;labelBackgroundColor=none;fontColor=default;" parent="LW8IWeT9kJPDAMSJkElj-114" source="LW8IWeT9kJPDAMSJkElj-107" target="LW8IWeT9kJPDAMSJkElj-77" edge="1">
          <mxGeometry width="50" height="50" relative="1" as="geometry">
            <mxPoint x="109" y="172" as="sourcePoint" />
            <mxPoint x="190" y="158" as="targetPoint" />
          </mxGeometry>
        </mxCell>
        <mxCell id="SwYi09imeUCcW1iPG3jF-4" style="edgeStyle=orthogonalEdgeStyle;rounded=0;orthogonalLoop=1;jettySize=auto;html=1;entryX=0;entryY=0.5;entryDx=0;entryDy=0;fillColor=#d80073;strokeColor=#A50040;strokeWidth=2;" edge="1" parent="1" source="LW8IWeT9kJPDAMSJkElj-80" target="LW8IWeT9kJPDAMSJkElj-32">
          <mxGeometry relative="1" as="geometry" />
        </mxCell>
        <mxCell id="SwYi09imeUCcW1iPG3jF-5" value="Implements" style="edgeLabel;html=1;align=center;verticalAlign=middle;resizable=0;points=[];fontSize=13;fontColor=#A50040;" vertex="1" connectable="0" parent="SwYi09imeUCcW1iPG3jF-4">
          <mxGeometry x="-0.2526" y="-2" relative="1" as="geometry">
            <mxPoint x="-10" y="9" as="offset" />
          </mxGeometry>
        </mxCell>
        <mxCell id="LW8IWeT9kJPDAMSJkElj-69" value="&lt;div&gt;&lt;b&gt;Validator Impl&lt;/b&gt;&lt;div&gt;&lt;b&gt;&lt;br&gt;&lt;/b&gt;&lt;/div&gt;&lt;div&gt;&lt;b&gt;&lt;br&gt;&lt;/b&gt;&lt;/div&gt;&lt;div&gt;&lt;b&gt;&lt;br&gt;&lt;/b&gt;&lt;/div&gt;&lt;div&gt;&lt;b&gt;&lt;br&gt;&lt;/b&gt;&lt;/div&gt;&lt;div&gt;&lt;b&gt;&lt;br&gt;&lt;/b&gt;&lt;/div&gt;&lt;div&gt;&lt;b&gt;&lt;br&gt;&lt;/b&gt;&lt;/div&gt;&lt;div&gt;&lt;b&gt;&lt;br&gt;&lt;/b&gt;&lt;/div&gt;&lt;div&gt;&lt;b&gt;&lt;br&gt;&lt;/b&gt;&lt;/div&gt;&lt;div&gt;&lt;b&gt;&lt;br&gt;&lt;/b&gt;&lt;/div&gt;&lt;div&gt;&lt;b&gt;&lt;br&gt;&lt;/b&gt;&lt;/div&gt;&lt;div&gt;&lt;b&gt;&lt;br&gt;&lt;/b&gt;&lt;/div&gt;&lt;div&gt;&lt;b&gt;&lt;br&gt;&lt;/b&gt;&lt;/div&gt;&lt;div&gt;&lt;b&gt;&lt;br&gt;&lt;/b&gt;&lt;/div&gt;&lt;div&gt;&lt;b&gt;&lt;br&gt;&lt;/b&gt;&lt;/div&gt;&lt;div&gt;&lt;b&gt;&lt;br&gt;&lt;/b&gt;&lt;/div&gt;&lt;div&gt;&lt;b&gt;&lt;br&gt;&lt;/b&gt;&lt;/div&gt;&lt;/div&gt;&lt;div&gt;&lt;b&gt;&lt;br&gt;&lt;/b&gt;&lt;/div&gt;&lt;div&gt;&lt;b&gt;&lt;br&gt;&lt;/b&gt;&lt;/div&gt;&lt;div&gt;&lt;b&gt;&lt;br&gt;&lt;/b&gt;&lt;/div&gt;&lt;div&gt;&lt;b&gt;&lt;br&gt;&lt;/b&gt;&lt;/div&gt;&lt;div&gt;&lt;b&gt;&lt;br&gt;&lt;/b&gt;&lt;/div&gt;" style="rounded=0;whiteSpace=wrap;html=1;labelBackgroundColor=none;strokeWidth=3;" parent="1" vertex="1">
          <mxGeometry x="548" y="170" width="190" height="330" as="geometry" />
        </mxCell>
        <mxCell id="LW8IWeT9kJPDAMSJkElj-64" value="Limit Classes" style="rounded=0;whiteSpace=wrap;html=1;labelBackgroundColor=none;" parent="1" vertex="1">
          <mxGeometry x="568" y="201.14893617021278" width="150" height="42.66595744680851" as="geometry" />
        </mxCell>
        <mxCell id="LW8IWeT9kJPDAMSJkElj-65" value="Validator Classes" style="rounded=0;whiteSpace=wrap;html=1;align=center;labelBackgroundColor=none;" parent="1" vertex="1">
          <mxGeometry x="568" y="279.36170212765956" width="150" height="42.66595744680851" as="geometry" />
        </mxCell>
        <mxCell id="SwYi09imeUCcW1iPG3jF-19" style="edgeStyle=orthogonalEdgeStyle;rounded=0;orthogonalLoop=1;jettySize=auto;html=1;entryX=1;entryY=0.5;entryDx=0;entryDy=0;strokeWidth=2;strokeColor=#D79B00;dashed=1;dashPattern=1 1;" edge="1" parent="1" source="LW8IWeT9kJPDAMSJkElj-66" target="LW8IWeT9kJPDAMSJkElj-64">
          <mxGeometry relative="1" as="geometry">
            <Array as="points">
              <mxPoint x="772" y="379" />
              <mxPoint x="772" y="223" />
            </Array>
          </mxGeometry>
        </mxCell>
        <mxCell id="SwYi09imeUCcW1iPG3jF-20" value="Depends on" style="edgeLabel;html=1;align=center;verticalAlign=middle;resizable=0;points=[];fontSize=13;fontColor=#D79B00;" vertex="1" connectable="0" parent="SwYi09imeUCcW1iPG3jF-19">
          <mxGeometry x="0.3025" y="-4" relative="1" as="geometry">
            <mxPoint x="34" as="offset" />
          </mxGeometry>
        </mxCell>
        <mxCell id="LW8IWeT9kJPDAMSJkElj-66" value="Constraints Classes&lt;div&gt;(Stores Range Limits)&lt;/div&gt;" style="rounded=0;whiteSpace=wrap;html=1;labelBackgroundColor=none;" parent="1" vertex="1">
          <mxGeometry x="568" y="357.5744680851064" width="150" height="42.66595744680851" as="geometry" />
        </mxCell>
        <mxCell id="SwYi09imeUCcW1iPG3jF-11" style="edgeStyle=orthogonalEdgeStyle;rounded=0;orthogonalLoop=1;jettySize=auto;html=1;exitX=0.5;exitY=0;exitDx=0;exitDy=0;dashed=1;dashPattern=1 1;strokeWidth=2;strokeColor=#D79B00;" edge="1" parent="1" source="LW8IWeT9kJPDAMSJkElj-68" target="LW8IWeT9kJPDAMSJkElj-66">
          <mxGeometry relative="1" as="geometry">
            <mxPoint x="642" y="401" as="targetPoint" />
            <mxPoint x="642.4099999999997" y="426.5472340425533" as="sourcePoint" />
          </mxGeometry>
        </mxCell>
        <mxCell id="SwYi09imeUCcW1iPG3jF-13" value="Depends on" style="edgeLabel;html=1;align=center;verticalAlign=middle;resizable=0;points=[];fontSize=13;fontColor=#D79B00;" vertex="1" connectable="0" parent="SwYi09imeUCcW1iPG3jF-11">
          <mxGeometry x="-0.1458" y="1" relative="1" as="geometry">
            <mxPoint x="39" y="1" as="offset" />
          </mxGeometry>
        </mxCell>
        <mxCell id="SwYi09imeUCcW1iPG3jF-16" style="edgeStyle=orthogonalEdgeStyle;rounded=0;orthogonalLoop=1;jettySize=auto;html=1;strokeWidth=2;dashed=1;dashPattern=1 1;strokeColor=#D79B00;entryX=1;entryY=0.5;entryDx=0;entryDy=0;" edge="1" parent="1" target="LW8IWeT9kJPDAMSJkElj-65">
          <mxGeometry relative="1" as="geometry">
            <mxPoint x="716.9999999999998" y="457.1176470588234" as="sourcePoint" />
            <mxPoint x="763" y="248" as="targetPoint" />
            <Array as="points">
              <mxPoint x="717" y="454" />
              <mxPoint x="799" y="454" />
              <mxPoint x="799" y="301" />
            </Array>
          </mxGeometry>
        </mxCell>
        <mxCell id="SwYi09imeUCcW1iPG3jF-18" value="Depends on" style="edgeLabel;html=1;align=center;verticalAlign=middle;resizable=0;points=[];fontSize=13;fontColor=#D79B00;" vertex="1" connectable="0" parent="SwYi09imeUCcW1iPG3jF-16">
          <mxGeometry x="-0.1249" relative="1" as="geometry">
            <mxPoint x="40" y="-19" as="offset" />
          </mxGeometry>
        </mxCell>
        <mxCell id="LW8IWeT9kJPDAMSJkElj-68" value="Validators Impl&lt;div&gt;(Internal validate API)&lt;/div&gt;" style="rounded=0;whiteSpace=wrap;html=1;labelBackgroundColor=none;" parent="1" vertex="1">
          <mxGeometry x="568" y="435.7872340425532" width="150" height="42.66595744680851" as="geometry" />
        </mxCell>
        <mxCell id="SwYi09imeUCcW1iPG3jF-2" style="edgeStyle=orthogonalEdgeStyle;rounded=0;orthogonalLoop=1;jettySize=auto;html=1;entryX=0.564;entryY=-0.034;entryDx=0;entryDy=0;exitX=0.75;exitY=1;exitDx=0;exitDy=0;entryPerimeter=0;fillColor=#d80073;strokeColor=#A50040;strokeWidth=2;" edge="1" parent="1" source="LW8IWeT9kJPDAMSJkElj-68" target="LW8IWeT9kJPDAMSJkElj-33">
          <mxGeometry relative="1" as="geometry">
            <Array as="points">
              <mxPoint x="680" y="531" />
              <mxPoint x="758" y="531" />
              <mxPoint x="758" y="671" />
              <mxPoint x="651" y="671" />
            </Array>
          </mxGeometry>
        </mxCell>
        <mxCell id="SwYi09imeUCcW1iPG3jF-3" value="Implements" style="edgeLabel;html=1;align=center;verticalAlign=middle;resizable=0;points=[];fontSize=13;fontColor=#A50040;" vertex="1" connectable="0" parent="SwYi09imeUCcW1iPG3jF-2">
          <mxGeometry x="-0.3552" y="2" relative="1" as="geometry">
            <mxPoint x="-1" y="-8" as="offset" />
          </mxGeometry>
        </mxCell>
        <mxCell id="LW8IWeT9kJPDAMSJkElj-46" style="edgeStyle=orthogonalEdgeStyle;rounded=0;orthogonalLoop=1;jettySize=auto;html=1;exitX=0.5;exitY=1;exitDx=0;exitDy=0;labelBackgroundColor=none;fontColor=default;fillColor=#ffe6cc;strokeColor=#d79b00;entryX=0.5;entryY=0;entryDx=0;entryDy=0;strokeWidth=2;dashed=1;dashPattern=1 1;" parent="1" source="LW8IWeT9kJPDAMSJkElj-69" target="LW8IWeT9kJPDAMSJkElj-32" edge="1">
          <mxGeometry relative="1" as="geometry">
            <mxPoint x="479" y="635" as="sourcePoint" />
            <Array as="points">
              <mxPoint x="643" y="552" />
            </Array>
          </mxGeometry>
        </mxCell>
        <mxCell id="LW8IWeT9kJPDAMSJkElj-47" value="Depends on" style="edgeLabel;html=1;align=center;verticalAlign=middle;resizable=0;points=[];labelBackgroundColor=none;fontColor=#D79B00;fontSize=13;fontStyle=0" parent="LW8IWeT9kJPDAMSJkElj-46" vertex="1" connectable="0">
          <mxGeometry x="-0.3405" y="4" relative="1" as="geometry">
            <mxPoint x="-44" y="-2" as="offset" />
          </mxGeometry>
        </mxCell>
        <mxCell id="LW8IWeT9kJPDAMSJkElj-100" style="edgeStyle=orthogonalEdgeStyle;rounded=0;orthogonalLoop=1;jettySize=auto;html=1;labelBackgroundColor=none;fontColor=default;fillColor=#ffe6cc;strokeColor=#d79b00;strokeWidth=2;dashed=1;dashPattern=1 1;" parent="1" edge="1">
          <mxGeometry relative="1" as="geometry">
            <mxPoint x="462.5" y="611.6470588235295" as="sourcePoint" />
            <mxPoint x="567" y="377" as="targetPoint" />
            <Array as="points">
              <mxPoint x="516" y="612" />
              <mxPoint x="516" y="377" />
              <mxPoint x="567" y="377" />
            </Array>
          </mxGeometry>
        </mxCell>
        <mxCell id="LW8IWeT9kJPDAMSJkElj-101" value="Depends on" style="edgeLabel;html=1;align=center;verticalAlign=middle;resizable=0;points=[];labelBackgroundColor=none;fontColor=#D79B00;fontSize=13;" parent="LW8IWeT9kJPDAMSJkElj-100" vertex="1" connectable="0">
          <mxGeometry x="-0.1222" y="-1" relative="1" as="geometry">
            <mxPoint x="-39" y="-12" as="offset" />
          </mxGeometry>
        </mxCell>
      </root>
    </mxGraphModel>
  </diagram>
</mxfile>
